<?xml version="1.0" standalone="no"?>
<!DOCTYPE svg PUBLIC "-//W3C//DTD SVG 20010904//EN"
 "http://www.w3.org/TR/2001/REC-SVG-20010904/DTD/svg10.dtd">
<svg version="1.0" xmlns="http://www.w3.org/2000/svg"
 width="500.000000pt" height="500.000000pt" viewBox="0 0 500.000000 500.000000"
 preserveAspectRatio="xMidYMid meet">
<metadata>
Created by potrace 1.14, written by Peter Selinger 2001-2017
</metadata>
<g transform="translate(0.000000,500.000000) scale(0.100000,-0.100000)"
fill="#000000" stroke="none">
<path d="M4575 1593 c-17 -3 -62 -109 -250 -579 -126 -317 -232 -577 -235
-579 -3 -2 -50 52 -103 121 -54 68 -102 124 -107 124 -4 0 -22 -17 -38 -38
-17 -21 -69 -71 -116 -112 -47 -41 -86 -77 -86 -80 0 -3 48 -15 108 -27 306
-63 638 -217 795 -370 l54 -53 202 0 201 0 0 110 c0 67 -4 110 -10 110 -5 0
-10 -4 -10 -9 0 -5 -14 -19 -31 -31 -29 -21 -31 -21 -43 -4 -8 10 -21 66 -31
124 -22 140 -20 135 -68 158 -196 93 -198 94 -195 115 2 15 33 36 110 77 60
31 112 60 117 65 5 6 16 65 25 133 8 68 18 127 21 133 12 18 40 8 76 -27 l37
-37 1 327 1 326 -23 5 c-12 3 -42 9 -67 15 -43 9 -293 12 -335 3z m158 -221
c24 -21 21 -47 -9 -71 -33 -26 -38 -26 -64 1 -27 29 -25 52 6 77 27 21 35 20
67 -7z m-323 -707 c0 -8 -4 -15 -10 -15 -5 0 -10 7 -10 15 0 8 5 15 10 15 6 0
10 -7 10 -15z m-62 -97 c-6 -18 -28 -21 -28 -4 0 9 7 16 16 16 9 0 14 -5 12
-12z m152 -163 c0 -8 -4 -15 -9 -15 -13 0 -22 16 -14 24 11 11 23 6 23 -9z"/>
<path d="M1416 1181 c-4 -7 29 -46 81 -97 158 -153 227 -194 327 -194 56 0
107 25 148 73 43 51 104 177 85 177 -1 0 -49 9 -107 21 -126 25 -522 40 -534
20z"/>
<path d="M905 972 c-38 -32 -108 -98 -155 -146 -135 -138 -277 -263 -384 -337
l-99 -69 74 0 c383 -1 762 -140 969 -355 l62 -65 186 0 187 1 25 40 c13 22 52
67 87 101 l62 62 -97 41 c-126 54 -168 76 -271 143 -115 73 -215 156 -296 244
-75 81 -213 283 -241 353 -11 25 -23 45 -29 45 -5 0 -41 -26 -80 -58z m83
-303 c-2 -6 -8 -10 -13 -10 -5 0 -11 4 -13 10 -2 6 4 11 13 11 9 0 15 -5 13
-11z m-186 -84 c0 -5 -5 -11 -11 -13 -6 -2 -11 4 -11 13 0 9 5 15 11 13 6 -2
11 -8 11 -13z m170 -90 c0 -5 -5 -11 -11 -13 -6 -2 -11 4 -11 13 0 9 5 15 11
13 6 -2 11 -8 11 -13z"/>
<path d="M3570 999 c-138 -118 -228 -172 -336 -199 -137 -35 -323 -19 -500 44
-54 20 -101 36 -103 36 -2 0 -1 -35 2 -78 8 -117 52 -192 113 -192 107 0 403
68 591 136 107 38 346 144 361 159 5 4 -80 124 -88 124 -3 0 -21 -13 -40 -30z"/>
</g>
</svg>
